<svg width="54" height="54" viewBox="0 0 54 54" fill="none" xmlns="http://www.w3.org/2000/svg">
<path d="M48.6 25.65L31.1344 7.93126C30.375 7.17188 29.1937 7.17188 28.4344 7.93126C27.675 8.69063 27.675 9.87188 28.4344 10.6313L42.6094 25.0594H6.74999C5.73749 25.0594 4.89374 25.9031 4.89374 26.9156C4.89374 27.9281 5.73749 28.8563 6.74999 28.8563H42.7781L28.4344 43.4531C27.675 44.2125 27.675 45.3938 28.4344 46.1531C28.7719 46.4906 29.2781 46.6594 29.7844 46.6594C30.2906 46.6594 30.7969 46.4906 31.1344 46.0688L48.6 28.35C49.3594 27.5906 49.3594 26.4094 48.6 25.65Z" fill="white"/>
</svg>
