<?xml version="1.0" standalone="no"?>
<!DOCTYPE svg PUBLIC "-//W3C//DTD SVG 20010904//EN"
 "http://www.w3.org/TR/2001/REC-SVG-20010904/DTD/svg10.dtd">
<svg version="1.0" xmlns="http://www.w3.org/2000/svg"
 viewBox="0 0 2600.000000 2600.000000"
 preserveAspectRatio="xMidYMid meet">
<metadata>
Created by potrace 1.15, written by Peter Selinger 2001-2017
</metadata>
<g transform="translate(0.000000,2600.000000) scale(0.100000,-0.100000)"
fill="#000000" stroke="none">
<path d="M18968 23979 c-1496 -80 -3406 -1304 -5621 -3604 -138 -143 -437
-462 -665 -708 -228 -247 -428 -457 -446 -468 -49 -30 -92 -39 -221 -46 -194
-9 -444 11 -1505 121 -1763 184 -2924 217 -4045 115 -1511 -137 -2722 -542
-3595 -1201 -381 -288 -816 -748 -937 -993 -49 -98 -67 -164 -67 -245 -1 -62
4 -85 27 -132 51 -105 161 -178 336 -226 91 -25 108 -26 351 -26 l255 0 340
56 c1004 168 1846 239 2645 225 612 -12 1126 -63 1640 -162 481 -94 816 -190
1595 -460 463 -160 625 -198 840 -198 113 0 176 7 248 29 14 5 12 -3 -11 -43
-247 -419 -825 -1724 -1339 -3023 -854 -2158 -1539 -4216 -1934 -5810 -52
-209 -92 -350 -113 -395 -18 -38 -112 -189 -210 -334 -293 -436 -474 -753
-750 -1311 -89 -179 -221 -458 -295 -620 -73 -162 -149 -328 -168 -368 -137
-291 -715 -575 -1878 -926 -252 -76 -584 -168 -1175 -326 -1008 -270 -1276
-354 -1352 -427 -35 -33 -24 -57 40 -86 41 -19 69 -22 229 -25 226 -5 457 17
983 94 839 122 936 134 1106 134 65 1 142 -4 169 -9 185 -36 733 -39 1015 -6
273 31 496 77 685 140 55 19 101 32 103 30 8 -7 -119 -89 -217 -139 -151 -77
-306 -140 -673 -275 -178 -65 -368 -137 -424 -160 -103 -43 -174 -91 -174
-117 0 -8 17 -23 37 -32 30 -14 66 -17 178 -16 116 0 166 6 291 32 437 91
1014 302 1525 558 395 197 641 357 820 531 l86 84 73 -20 c244 -68 688 -84
1390 -50 351 16 656 37 1525 104 1304 100 1718 122 2030 105 230 -12 250 -18
720 -230 547 -247 923 -367 1380 -440 360 -58 461 -48 824 82 289 103 484 152
743 185 108 14 195 16 463 14 807 -9 798 -10 1118 70 930 233 2127 946 2970
1768 137 134 138 135 113 148 -46 24 -159 44 -245 44 -122 -1 -223 -29 -376
-106 -71 -36 -138 -65 -149 -65 -17 0 -18 6 -13 58 3 36 15 75 33 107 41 71
160 192 242 245 39 25 71 48 71 51 1 11 -108 48 -191 65 -115 23 -239 15 -352
-24 -156 -54 -293 -145 -576 -385 -282 -239 -444 -353 -625 -438 -97 -46 -131
-48 -127 -9 1 14 39 100 84 193 44 92 78 170 74 174 -3 4 -34 1 -69 -5 -87
-16 -248 -98 -462 -237 -99 -65 -232 -149 -295 -188 -127 -78 -357 -194 -366
-184 -16 16 -25 107 -36 365 -28 653 42 2441 128 3282 51 501 66 571 204 898
864 2061 1602 4312 2119 6457 275 1142 460 2056 741 3665 83 478 159 860 196
985 50 173 134 300 284 431 446 386 1476 770 2755 1029 509 103 994 169 1418
194 130 8 155 12 203 36 80 39 109 87 109 179 -1 49 -6 82 -19 106 -90 172
-313 295 -656 364 -69 14 -287 44 -486 66 -560 63 -813 108 -1150 205 -577
167 -1206 488 -1769 900 -225 165 -370 257 -520 330 -301 147 -616 229 -924
241 -75 2 -149 6 -166 7 -16 2 -91 0 -167 -4z"/>
</g>
</svg>
